<svg width="40" height="24" viewBox="0 0 40 24" fill="none" xmlns="http://www.w3.org/2000/svg">
<g clip-path="url(#clip0_2453_656)">
<path d="M11.3681 8.75601C11.3681 9.24392 11.4208 9.63953 11.5129 9.92964C11.6181 10.2197 11.7497 10.5362 11.9339 10.8791C11.9997 10.9846 12.026 11.0901 12.026 11.1824C12.026 11.3143 11.9471 11.4461 11.776 11.578L10.9471 12.1318C10.8287 12.211 10.7102 12.2505 10.605 12.2505C10.4734 12.2505 10.3418 12.1846 10.2102 12.0659C10.026 11.8681 9.86814 11.6571 9.73656 11.4461C9.60498 11.2219 9.4734 10.9714 9.32867 10.6681C8.30235 11.8813 7.01288 12.4879 5.46024 12.4879C4.35498 12.4879 3.4734 12.1714 2.82866 11.5384C2.18393 10.9055 1.85498 10.0615 1.85498 9.00656C1.85498 7.88568 2.24972 6.97579 3.05235 6.29008C3.85498 5.60436 4.92077 5.2615 6.27603 5.2615C6.7234 5.2615 7.18393 5.30106 7.67077 5.367C8.15761 5.43293 8.65761 5.53843 9.18393 5.65711V4.69447C9.18393 3.69227 8.9734 2.99337 8.56551 2.58458C8.14445 2.17579 7.43393 1.97799 6.42077 1.97799C5.96024 1.97799 5.48656 2.03073 4.99972 2.14942C4.51288 2.2681 4.03919 2.41315 3.57866 2.59777C3.36814 2.69007 3.21024 2.74282 3.11814 2.7692C3.02603 2.79557 2.96024 2.80876 2.90761 2.80876C2.7234 2.80876 2.6313 2.67689 2.6313 2.39996V1.75381C2.6313 1.54282 2.65761 1.38458 2.7234 1.29227C2.78919 1.19996 2.90761 1.10766 3.09182 1.01535C3.55235 0.777987 4.10498 0.580184 4.74972 0.421943C5.39445 0.250514 6.07866 0.171393 6.80235 0.171393C8.36814 0.171393 9.51288 0.527437 10.2497 1.23952C10.9734 1.95161 11.3418 3.03293 11.3418 4.48348V8.75601H11.3681ZM6.02603 10.7604C6.46024 10.7604 6.90761 10.6813 7.3813 10.523C7.85498 10.3648 8.27603 10.0747 8.6313 9.67909C8.84182 9.42854 8.99972 9.15161 9.07867 8.83513C9.15761 8.51865 9.21024 8.13623 9.21024 7.68788V7.13403C8.82867 7.04172 8.42077 6.9626 7.99972 6.90986C7.57866 6.85711 7.17077 6.83073 6.76288 6.83073C5.8813 6.83073 5.23656 7.00216 4.80235 7.35821C4.36814 7.71425 4.15761 8.21535 4.15761 8.87469C4.15761 9.49447 4.31551 9.95601 4.64445 10.2725C4.96024 10.6022 5.42077 10.7604 6.02603 10.7604ZM16.5918 12.1846C16.355 12.1846 16.1971 12.145 16.0918 12.0527C15.9866 11.9736 15.8945 11.789 15.8155 11.5384L12.7234 1.34502C12.6445 1.08128 12.605 0.909855 12.605 0.817547C12.605 0.606558 12.7102 0.487877 12.9208 0.487877H14.2102C14.4602 0.487877 14.6313 0.527437 14.7234 0.619745C14.8287 0.698866 14.9076 0.883481 14.9866 1.13403L17.1971 9.8637L19.2497 1.13403C19.3155 0.870294 19.3945 0.698866 19.4997 0.619745C19.605 0.540624 19.7892 0.487877 20.026 0.487877H21.0787C21.3287 0.487877 21.4997 0.527437 21.605 0.619745C21.7102 0.698866 21.8023 0.883481 21.855 1.13403L23.9339 9.9692L26.2102 1.13403C26.2892 0.870294 26.3813 0.698866 26.4734 0.619745C26.5787 0.540624 26.7497 0.487877 26.9866 0.487877H28.2102C28.4208 0.487877 28.5392 0.593371 28.5392 0.817547C28.5392 0.883481 28.526 0.949415 28.5129 1.02854C28.4997 1.10766 28.4734 1.21315 28.4208 1.35821L25.2497 11.5516C25.1708 11.8153 25.0787 11.9868 24.9734 12.0659C24.8681 12.145 24.6971 12.1978 24.4734 12.1978H23.3418C23.0918 12.1978 22.9208 12.1582 22.8155 12.0659C22.7102 11.9736 22.6181 11.8022 22.5655 11.5384L20.526 3.03293L18.4997 11.5252C18.4339 11.789 18.355 11.9604 18.2497 12.0527C18.1445 12.145 17.9602 12.1846 17.7234 12.1846H16.5918ZM33.4997 12.5406C32.8155 12.5406 32.1313 12.4615 31.4734 12.3033C30.8155 12.145 30.3023 11.9736 29.9602 11.7758C29.7497 11.6571 29.605 11.5252 29.5523 11.4066C29.4997 11.2879 29.4734 11.156 29.4734 11.0373V10.3648C29.4734 10.0879 29.5787 9.95601 29.776 9.95601C29.855 9.95601 29.9339 9.9692 30.0129 9.99557C30.0918 10.0219 30.2102 10.0747 30.3418 10.1274C30.7892 10.3252 31.276 10.4835 31.7892 10.589C32.3155 10.6945 32.8287 10.7472 33.355 10.7472C34.1839 10.7472 34.8287 10.6022 35.276 10.3121C35.7234 10.0219 35.9602 9.59997 35.9602 9.05931C35.9602 8.69007 35.8418 8.38678 35.605 8.13623C35.3681 7.88568 34.9208 7.6615 34.276 7.45051L32.3681 6.85711C31.4076 6.55381 30.6971 6.10546 30.2629 5.51205C29.8287 4.93183 29.605 4.28568 29.605 3.59996C29.605 3.04612 29.7234 2.55821 29.9602 2.13623C30.1971 1.71425 30.5129 1.34502 30.9076 1.05491C31.3023 0.751613 31.7497 0.527437 32.276 0.369195C32.8023 0.210954 33.355 0.14502 33.9339 0.14502C34.2234 0.14502 34.526 0.158206 34.8155 0.197767C35.1181 0.237327 35.3945 0.290074 35.6708 0.342822C35.9339 0.408756 36.1839 0.47469 36.4208 0.553811C36.6576 0.632932 36.8418 0.712053 36.9734 0.791173C37.1576 0.896668 37.2892 1.00216 37.3681 1.12084C37.4471 1.22634 37.4866 1.37139 37.4866 1.55601V2.17579C37.4866 2.45271 37.3813 2.59777 37.1839 2.59777C37.0787 2.59777 36.9076 2.54502 36.6839 2.43953C35.9339 2.09667 35.0918 1.92524 34.1576 1.92524C33.4076 1.92524 32.8155 2.04392 32.4076 2.29447C31.9997 2.54502 31.7892 2.92744 31.7892 3.4681C31.7892 3.83733 31.9208 4.15381 32.1839 4.40436C32.4471 4.65491 32.9339 4.90546 33.6313 5.12964L35.4997 5.72304C36.4471 6.02634 37.1313 6.44832 37.5392 6.98898C37.9471 7.52964 38.1445 8.14942 38.1445 8.83513C38.1445 9.40216 38.026 9.91645 37.8023 10.3648C37.5655 10.8132 37.2497 11.2088 36.8418 11.5252C36.4339 11.8549 35.9471 12.0923 35.3813 12.2637C34.7892 12.4483 34.1708 12.5406 33.4997 12.5406Z" fill="#252F3E"/>
<path fill-rule="evenodd" clip-rule="evenodd" d="M35.9866 18.9495C31.6577 22.1539 25.3682 23.855 19.9603 23.855C12.3813 23.855 5.5524 21.0462 0.394504 16.378C-0.0133911 16.0088 0.35503 15.5077 0.841872 15.7978C6.42082 19.0418 13.3024 21.0066 20.4208 21.0066C25.2235 21.0066 30.4998 20.0044 35.355 17.9473C36.0787 17.6176 36.6971 18.422 35.9866 18.9495Z" fill="#FF9900"/>
<path fill-rule="evenodd" clip-rule="evenodd" d="M37.7895 16.8924C37.2369 16.1803 34.1316 16.5495 32.7237 16.7209C32.3027 16.7737 32.2369 16.4045 32.6185 16.1275C35.0921 14.3869 39.1579 14.888 39.6316 15.4682C40.1053 16.0616 39.5 20.1363 37.1842 22.088C36.829 22.3913 36.4869 22.233 36.6448 21.8374C37.1711 20.5319 38.3421 17.5913 37.7895 16.8924Z" fill="#FF9900"/>
</g>
<defs>
<clipPath id="clip0_2453_656">
<rect width="40" height="24" fill="white"/>
</clipPath>
</defs>
</svg>
