<svg width="40" height="40" viewBox="0 0 40 40" fill="none" xmlns="http://www.w3.org/2000/svg">
<circle cx="19.286" cy="19.2857" r="15.4286" fill="white"/>
<path d="M39.2494 19.6322C39.2494 30.4353 30.4353 39.2494 19.6172 39.2494C8.81418 39.2494 0 30.4353 0 19.6322C0 8.81418 8.81418 0 19.6172 0C30.4353 0 39.2494 8.81418 39.2494 19.6322ZM26.1111 11.8878L17.4024 25.7343L13.0631 20.3103C12.6562 19.7829 12.2796 19.6172 11.8125 19.6172C11.0591 19.6172 10.4715 20.235 10.4715 20.9883C10.4715 21.365 10.6222 21.7417 10.8784 22.0731L16.0161 28.2807C16.4532 28.8382 16.89 29.0793 17.4626 29.0793C18.0351 29.0793 18.5022 28.808 18.8488 28.2807L28.2957 13.4699C28.4917 13.1535 28.6875 12.7617 28.6875 12.4001C28.6875 11.6317 28.0246 11.1194 27.3014 11.1194C26.8493 11.1194 26.4124 11.3906 26.1111 11.8878Z" fill="#3ECF7F"/>
</svg>
