<svg width="15" height="18" viewBox="0 0 15 18" fill="none" xmlns="http://www.w3.org/2000/svg">
<path d="M8.36377 1C8.36377 0.447715 7.91605 2.41411e-08 7.36377 0C6.81148 -2.41411e-08 6.36377 0.447715 6.36377 1L7.36377 1L8.36377 1ZM6.65666 17.7071C7.04719 18.0976 7.68035 18.0976 8.07088 17.7071L14.4348 11.3431C14.8254 10.9526 14.8254 10.3195 14.4348 9.92893C14.0443 9.53841 13.4111 9.53841 13.0206 9.92893L7.36377 15.5858L1.70691 9.92893C1.31639 9.53841 0.683226 9.53841 0.292701 9.92893C-0.0978231 10.3195 -0.0978231 10.9526 0.292701 11.3431L6.65666 17.7071ZM7.36377 1L6.36377 1L6.36377 17L7.36377 17L8.36377 17L8.36377 1L7.36377 1Z" fill="white" fill-opacity="0.6"/>
</svg>
