<svg width="40" height="31" viewBox="0 0 40 31" fill="none" xmlns="http://www.w3.org/2000/svg">
<path d="M39.3493 12.7366C38.3685 12.0884 35.7918 11.8115 33.9188 12.3074C33.8183 10.4753 32.8553 8.93106 31.0953 7.58369L30.444 7.15443L30.0098 7.79862C29.1562 9.07065 28.7964 10.7661 28.9237 12.3074C29.0242 13.257 29.3603 14.324 30.0098 15.0985C27.5717 16.4873 25.324 16.1719 15.3706 16.1719H0.00340252C-0.0412073 18.379 0.319835 22.6238 3.06899 26.0795C3.37293 26.4615 3.70543 26.8306 4.06706 27.1862C6.30231 29.384 9.67958 30.9959 14.7294 31C22.4338 31.007 29.0343 26.9176 33.0498 17.031C34.3708 17.0521 37.8587 17.2635 39.5658 14.025C39.6074 13.9707 40 13.1665 40 13.1665L39.3493 12.7372V12.7366ZM10.0323 10.7188H5.71108V14.9618H10.0323V10.7188ZM15.6145 10.7188H11.2933V14.9618H15.6145V10.7188ZM21.1972 10.7188H16.876V14.9618H21.1972V10.7188ZM26.78 10.7188H22.4588V14.9618H26.78V10.7188ZM4.44952 10.7188H0.12831V14.9618H4.44952V10.7188ZM10.0323 5.35969H5.71108V9.6027H10.0323V5.35969ZM15.6145 5.35969H11.2933V9.6027H15.6145V5.35969ZM21.1972 5.35969H16.876V9.6027H21.1972V5.35969ZM21.1972 0H16.876V4.24301H21.1972V0Z" fill="#1D63ED"/>
</svg>
