<svg width="21" height="31" viewBox="0 0 21 31" fill="none" xmlns="http://www.w3.org/2000/svg">
<g clip-path="url(#clip0_2453_2)">
<path d="M5.02713 30.1512C7.80103 30.1512 10.0523 27.8999 10.0523 25.126V20.1008H5.02713C2.25323 20.1008 0.00195312 22.3521 0.00195312 25.126C0.00195312 27.8999 2.25323 30.1512 5.02713 30.1512Z" fill="#0ACF83"/>
<path d="M0.00195312 15.0755C0.00195312 12.3016 2.25323 10.0503 5.02713 10.0503H10.0523V20.1006H5.02713C2.25323 20.1006 0.00195312 17.8494 0.00195312 15.0755Z" fill="#A259FF"/>
<path d="M0.00195312 5.02518C0.00195312 2.25128 2.25323 0 5.02713 0H10.0523V10.0504H5.02713C2.25323 10.0504 0.00195312 7.79907 0.00195312 5.02518Z" fill="#F24E1E"/>
<path d="M10.0522 0H15.0774C17.8513 0 20.1026 2.25128 20.1026 5.02518C20.1026 7.79907 17.8513 10.0504 15.0774 10.0504H10.0522V0Z" fill="#FF7262"/>
<path d="M20.1026 15.0755C20.1026 17.8494 17.8513 20.1006 15.0774 20.1006C12.3035 20.1006 10.0522 17.8494 10.0522 15.0755C10.0522 12.3016 12.3035 10.0503 15.0774 10.0503C17.8513 10.0503 20.1026 12.3016 20.1026 15.0755Z" fill="#1ABCFE"/>
</g>
<defs>
<clipPath id="clip0_2453_2">
<rect width="20.1047" height="30.1511" fill="white"/>
</clipPath>
</defs>
</svg>
