<svg width="39" height="40" viewBox="0 0 39 40" fill="none" xmlns="http://www.w3.org/2000/svg">
<g clip-path="url(#clip0_2453_189)">
<path d="M22.7943 39.0385C21.7711 40.3132 19.6967 39.6148 19.672 37.9872L19.3115 14.1814H35.491C38.4216 14.1814 40.056 17.5301 38.2338 19.8008L22.7943 39.0385Z" fill="url(#paint0_linear_2453_189)"/>
<path d="M22.7943 39.0385C21.7711 40.3132 19.6967 39.6148 19.672 37.9872L19.3115 14.1814H35.491C38.4216 14.1814 40.056 17.5301 38.2338 19.8008L22.7943 39.0385Z" fill="url(#paint1_linear_2453_189)" fill-opacity="0.2"/>
<path d="M16.2143 0.733061C17.2374 -0.541771 19.3119 0.156745 19.3366 1.78438L19.4946 25.5901H3.51753C0.586891 25.5901 -1.04758 22.2414 0.774778 19.9707L16.2143 0.733061Z" fill="#3ECF8E"/>
</g>
<defs>
<linearGradient id="paint0_linear_2453_189" x1="19.3115" y1="19.4597" x2="33.6449" y2="25.5359" gradientUnits="userSpaceOnUse">
<stop stop-color="#249361"/>
<stop offset="1" stop-color="#3ECF8E"/>
</linearGradient>
<linearGradient id="paint1_linear_2453_189" x1="12.9363" y1="10.824" x2="19.3852" y2="23.0946" gradientUnits="userSpaceOnUse">
<stop/>
<stop offset="1" stop-opacity="0"/>
</linearGradient>
<clipPath id="clip0_2453_189">
<rect width="39" height="40" fill="white"/>
</clipPath>
</defs>
</svg>
